<?xml version="1.0" encoding="iso-8859-1"?>
<!-- Generator: Adobe Illustrator 16.0.0, SVG Export Plug-In . SVG Version: 6.00 Build 0)  -->
<!DOCTYPE svg PUBLIC "-//W3C//DTD SVG 1.1//EN" "http://www.w3.org/Graphics/SVG/1.1/DTD/svg11.dtd">
<svg xmlns="http://www.w3.org/2000/svg" xmlns:xlink="http://www.w3.org/1999/xlink" version="1.1" id="Capa_1" x="0px" y="0px" width="512px" height="512px" viewBox="0 0 563.68 563.68" style="enable-background:new 0 0 563.68 563.68;" xml:space="preserve">
<g>
	<g>
		<path d="M556.557,139.444l-384.902,1.089c-5.07,0.015-10.337,3.972-11.76,8.834l-3.92,13.381    c3.727,1.429,7.234,3.244,10.055,5.352l17.577,13.137c1.411,1.052,5.612,2.451,7.372,2.451h208.171    c11.579,0,22.794,7.919,26.672,18.829l70.48,198.419l67.078-252.649C564.681,143.392,561.624,139.429,556.557,139.444z" fill="#FFDA44"/>
		<path d="M411.402,207.643c-1.698-4.777-7.182-8.651-12.253-8.651H190.978c-5.07,0-12.473-2.46-16.533-5.496l-17.577-13.137    c-1.411-1.053-3.234-2.029-5.211-2.864c-3.718-1.573-8.011-2.631-11.322-2.631H6.797c-5.071,0-7.926,3.914-6.374,8.742    l74.401,231.887c1.548,4.829,6.916,8.742,11.986,8.742h1.778H479.16h0.003c5.067,0,7.803-3.874,6.104-8.65L411.402,207.643z" fill="#FFDA44"/>
	</g>
</g>
<g>
</g>
<g>
</g>
<g>
</g>
<g>
</g>
<g>
</g>
<g>
</g>
<g>
</g>
<g>
</g>
<g>
</g>
<g>
</g>
<g>
</g>
<g>
</g>
<g>
</g>
<g>
</g>
<g>
</g>
</svg>
